<svg xmlns="http://www.w3.org/2000/svg" version="1.1" xmlns:xlink="http://www.w3.org/1999/xlink" viewBox="0 0 200 200" width="200" height="200"><rect width="200" height="200" fill="url('#gradient')"></rect><defs><linearGradient id="gradient" gradientTransform="rotate(45 0.5 0.5)"><stop offset="0%" stop-color="#3c4845"></stop><stop offset="100%" stop-color="#1b7974"></stop></linearGradient></defs><g><g fill="#3df383" transform="matrix(4.831454783748362,0,0,4.831454783748362,5.885717566297686,135.75510768815388)" stroke="#c2d02d" stroke-width="0.2"><path d="M4.14-15L4.14-9.43Q5.20-10.76 6.84-10.76L6.84-10.76Q8.58-10.76 9.47-9.73Q10.36-8.69 10.38-6.67L10.38-6.67L10.38 0L7.08 0L7.08-6.59Q7.08-7.43 6.74-7.83Q6.40-8.22 5.58-8.22L5.58-8.22Q4.56-8.22 4.14-7.58L4.14-7.58L4.14 0L0.85 0L0.85-15L4.14-15ZM21.46 0L18.16 0Q17.99-0.32 17.85-0.95L17.85-0.95Q16.94 0.20 15.31 0.20L15.31 0.20Q13.82 0.20 12.77-0.71Q11.73-1.61 11.73-2.98L11.73-2.98Q11.73-4.70 13.00-5.58Q14.27-6.46 16.69-6.46L16.69-6.46L17.71-6.46L17.71-7.01Q17.71-8.47 16.45-8.47L16.45-8.47Q15.27-8.47 15.27-7.31L15.27-7.31L11.98-7.31Q11.98-8.85 13.29-9.80Q14.59-10.76 16.61-10.76Q18.63-10.76 19.80-9.78Q20.98-8.79 21.01-7.07L21.01-7.07L21.01-2.39Q21.03-0.94 21.46-0.17L21.46-0.17L21.46 0ZM16.10-2.15L16.10-2.15Q16.72-2.15 17.12-2.41Q17.53-2.68 17.71-3.01L17.71-3.01L17.71-4.70L16.75-4.70Q15.03-4.70 15.03-3.15L15.03-3.15Q15.03-2.71 15.33-2.43Q15.63-2.15 16.10-2.15ZM26.30-15L26.30 0L23.00 0L23.00-15L26.30-15ZM27.92-4.82L27.91-5.38Q27.91-6.96 28.53-8.20Q29.14-9.43 30.29-10.10Q31.45-10.76 33.00-10.76L33.00-10.76Q35.37-10.76 36.74-9.29Q38.11-7.82 38.11-5.29L38.11-5.29L38.11-5.18Q38.11-2.71 36.73-1.25Q35.36 0.20 33.02 0.20L33.02 0.20Q30.76 0.20 29.39-1.16Q28.03-2.51 27.92-4.82L27.92-4.82ZM31.21-5.77L31.20-5.18Q31.20-3.71 31.66-3.03Q32.12-2.34 33.02-2.34L33.02-2.34Q34.78-2.34 34.81-5.05L34.81-5.05L34.81-5.38Q34.81-8.22 33.00-8.22L33.00-8.22Q31.35-8.22 31.21-5.77L31.21-5.77Z"></path></g></g><style>@media (prefers-color-scheme: light) { :root { filter: contrast(1) brightness(1); } }
</style></svg>